<?xml version="1.0" encoding="UTF-8"?>
<svg id="Layer_1" data-name="Layer 1" xmlns="http://www.w3.org/2000/svg" viewBox="0 0 152.79 157.37">
  <defs>
    <style>
      .cls-1 {
        fill: #082658;
      }
    </style>
  </defs>
  <path class="cls-1" d="M95.92,125.58c-19.01-1.87-38.39-14.32-44.46-33.02-3.61-10.18-4.59-22.33.81-32.02,2.3-3.97,5.87-7.82,10.13-9.81,4.16-1.22,11.71-.81,15.63,1.47.83.56,3.23,1.97,2.32,3.12-.71.67-1.91,1.01-2.79,1.57-12.66,8.56-12.57,27.44-4.76,39.24,14.43,22.23,45.75,26.41,69.43,18.71.87-.16,1.49-.31,1.68.18.19.43-.02,1.21-.44,1.86-12.02,18.77-29.43,32.21-48.57,37.71-18.93,5.75-41.11,2.49-58.44-8.98C-29.18,104.23-.37.1,76.59,0c35.15-.26,66.71,25.9,74.3,60.06,3.14,14.18,2.83,32.31-4.31,45.96-18.73,14.42-59.18,9.14-70.03-13.33-5.19-9.33-2.84-22.54,3.34-30.97,6.65-8.59,19.2-9.18,29.1-5.39,5.33,2.1,7.89,5.39,10.97,10.18,1.07,1.72,4.21,1.02,4.79-.33,1.73-4.15-1.52-9.91-3.18-13.71-3.59-7.71-12.38-15.51-19.02-19.26C68.23,14.72,21.18,37.21,15.53,76.42c-.26,1.35.38,1.35.88.01,3.55-11.64,15.99-27.5,27.74-32.5,4.97-1.97,11.32-3.29,16.45-3.52-2.27,2.5-6.43,5.45-8.59,8.18-5.36,6.96-9.24,14.33-10.85,23.08-1.38,8.08-1.81,16.62,1.29,23.98,10.92,27.85,39.03,36.87,66.49,32.34.93-.2,6.81-.88,4.55-2.29-5.57-.32-11.91.48-17.4-.12l-.17-.02Z"/>
</svg>