<svg width="648" height="153" viewBox="0 0 648 153" fill="none" xmlns="http://www.w3.org/2000/svg">
<g clip-path="url(#clip0_102_13)">
<path d="M103.94 111.365C89.8809 109.975 75.5479 100.718 71.0586 86.8154C68.3887 79.2469 67.664 70.2137 71.6577 63.0094C73.3587 60.0579 75.999 57.1955 79.1496 55.716C82.2262 54.809 87.81 55.1138 90.7092 56.8089C91.323 57.2252 93.098 58.2735 92.425 59.1285C91.8999 59.6267 91.0124 59.8794 90.3616 60.2958C80.9985 66.6599 81.0651 80.6966 86.8412 89.4696C97.5133 105.997 120.677 109.105 138.19 103.38C138.833 103.261 139.292 103.149 139.433 103.514C139.573 103.833 139.418 104.413 139.107 104.897C130.217 118.852 117.341 128.844 103.186 132.933C89.1857 137.208 72.7818 134.784 59.965 126.257C11.4191 95.4917 32.7263 18.0741 89.6442 17.9997C115.64 17.8064 138.981 37.2556 144.595 62.6526C146.917 73.195 146.688 86.6741 141.407 96.8225C127.555 107.543 97.639 103.618 89.6146 86.912C85.7762 79.9755 87.5142 70.1542 92.0848 63.8867C97.003 57.5003 106.285 57.0617 113.606 59.8794C117.548 61.4407 119.442 63.8867 121.72 67.448C122.511 68.7267 124.833 68.2063 125.262 67.2026C126.542 64.1172 124.138 59.8348 122.91 57.0096C120.255 51.2775 113.754 45.4784 108.844 42.6904C83.4613 28.9436 48.6642 45.6643 44.4856 74.8158C44.2933 75.8195 44.7666 75.8195 45.1364 74.8232C47.7619 66.1692 56.9623 54.3778 65.6523 50.6604C69.328 49.1958 74.0243 48.2144 77.8184 48.0434C76.1395 49.9021 73.0629 52.0953 71.4654 54.125C67.5012 59.2995 64.6317 64.7789 63.441 71.2843C62.4204 77.2915 62.1023 83.6408 64.395 89.1127C72.4712 109.818 93.2607 116.524 113.57 113.157C114.257 113.008 118.606 112.502 116.935 111.454C112.815 111.216 108.126 111.811 104.066 111.365L103.94 111.35V111.365Z" fill="#082658"/>
</g>
<path d="M179.072 98V94.736H185.28V57.616H179.2V54.352H192V98H179.072ZM192 98V94.288H204.672C207.616 94.288 209.941 93.584 211.648 92.176C213.397 90.768 214.272 88.6773 214.272 85.904C214.272 83.216 213.397 81.168 211.648 79.76C209.941 78.352 207.616 77.648 204.672 77.648H192V75.216H206.784C211.178 75.216 214.634 76.1333 217.152 77.968C219.712 79.76 220.992 82.5547 220.992 86.352C220.992 90.2347 219.712 93.1573 217.152 95.12C214.592 97.04 211.157 98 206.848 98H192ZM192 75.92V73.936H203.072C205.93 73.936 208.17 73.2747 209.792 71.952C211.456 70.5867 212.288 68.5813 212.288 65.936C212.288 63.3333 211.456 61.3707 209.792 60.048C208.17 58.6827 205.93 58 203.072 58H192V54.352H205.12C209.301 54.352 212.65 55.2693 215.168 57.104C217.728 58.896 219.008 61.6267 219.008 65.296C219.008 68.88 217.77 71.5467 215.296 73.296C212.864 75.0453 209.536 75.92 205.312 75.92H192ZM226.017 98V94.736H231.777V68.624H226.529V65.296H237.473V76.304L238.177 76.176V94.736H246.561V98H226.017ZM236.129 78.224C236.171 75.024 236.705 72.4213 237.729 70.416C238.753 68.368 240.139 66.8747 241.889 65.936C243.681 64.9547 245.707 64.464 247.969 64.464C250.358 64.4213 252.299 64.9973 253.793 66.192C255.286 67.3867 256.033 69.0293 256.033 71.12C256.033 72.4427 255.649 73.5307 254.881 74.384C254.113 75.2373 253.089 75.664 251.809 75.664C250.742 75.664 249.867 75.3653 249.185 74.768C248.545 74.128 248.225 73.3387 248.225 72.4C248.225 71.2907 248.63 70.4373 249.441 69.84C250.251 69.2427 251.446 68.9867 253.025 69.072L252.513 71.184C252.47 69.9467 251.958 69.008 250.977 68.368C250.038 67.6853 248.758 67.3653 247.137 67.408C245.515 67.408 244.001 67.8133 242.593 68.624C241.227 69.392 240.139 70.5867 239.329 72.208C238.561 73.8293 238.177 75.8347 238.177 78.224H236.129ZM276.92 98.704C273.72 98.704 270.904 98.0427 268.472 96.72C266.04 95.3973 264.142 93.4773 262.776 90.96C261.411 88.4 260.728 85.3067 260.728 81.68C260.728 78.0107 261.411 74.9173 262.776 72.4C264.142 69.84 266.019 67.8987 268.408 66.576C270.84 65.2533 273.635 64.592 276.792 64.592L276.984 68.048C274.936 68.048 273.166 68.5387 271.672 69.52C270.222 70.5013 269.091 71.9733 268.28 73.936C267.47 75.856 267.064 78.288 267.064 81.232C267.064 85.1573 268.046 88.272 270.008 90.576C272.014 92.8373 274.702 93.968 278.072 93.968C280.248 93.968 281.998 93.584 283.32 92.816C284.686 92.048 285.731 91.088 286.456 89.936C287.224 88.784 287.758 87.6533 288.056 86.544H291.832C291.704 87.952 291.299 89.3813 290.616 90.832C289.976 92.2827 289.059 93.6053 287.864 94.8C286.67 95.952 285.155 96.8907 283.32 97.616C281.528 98.3413 279.395 98.704 276.92 98.704ZM263.864 81.232V77.904H285.88L292.216 79.76V81.232H263.864ZM285.88 77.904C285.838 76.0693 285.475 74.4053 284.792 72.912C284.11 71.4187 283.107 70.2453 281.784 69.392C280.504 68.496 278.904 68.048 276.984 68.048L276.792 64.592C280.163 64.592 282.979 65.232 285.24 66.512C287.544 67.792 289.272 69.5627 290.424 71.824C291.619 74.0853 292.216 76.7307 292.216 79.76L285.88 77.904ZM305.265 76.688C304.113 76.688 303.111 76.368 302.257 75.728C301.404 75.0453 300.977 74 300.977 72.592C300.977 70.8 301.617 69.328 302.897 68.176C304.177 67.024 305.863 66.1493 307.953 65.552C310.087 64.9547 312.327 64.656 314.673 64.656C318.513 64.656 321.479 65.4453 323.569 67.024C325.66 68.6027 326.705 71.0133 326.705 74.256L320.689 73.36C320.689 71.568 320.071 70.2027 318.833 69.264C317.596 68.2827 315.761 67.792 313.329 67.792C311.836 67.792 310.428 67.984 309.105 68.368C307.783 68.7093 306.695 69.2853 305.841 70.096C304.988 70.864 304.519 71.8667 304.433 73.104L304.305 70.544C305.671 70.544 306.759 70.8 307.569 71.312C308.423 71.824 308.828 72.6133 308.785 73.68C308.785 74.6187 308.465 75.3653 307.825 75.92C307.228 76.432 306.375 76.688 305.265 76.688ZM329.201 98.64C326.641 98.64 324.679 97.9147 323.313 96.464C321.991 95.0133 321.329 92.9653 321.329 90.32V87.632H320.625V78.48H320.305L320.689 75.856V73.36L326.705 74.256V90.704C326.705 91.8133 326.961 92.7093 327.473 93.392C328.028 94.0747 328.839 94.416 329.905 94.416C330.929 94.416 331.697 94.0747 332.209 93.392C332.764 92.7093 333.041 91.8133 333.041 90.704V79.824H337.009V90.384C337.009 92.944 336.348 94.9707 335.025 96.464C333.703 97.9147 331.761 98.64 329.201 98.64ZM309.233 98.64C306.033 98.64 303.452 97.872 301.489 96.336C299.527 94.7573 298.545 92.624 298.545 89.936C298.545 87.9733 298.972 86.3733 299.825 85.136C300.679 83.8987 301.852 82.9173 303.345 82.192C304.881 81.424 306.609 80.8267 308.529 80.4L313.905 79.248C315.228 78.9493 316.401 78.5867 317.425 78.16C318.449 77.6907 319.239 77.0933 319.793 76.368C320.391 75.6 320.689 74.5973 320.689 73.36L320.881 78.48H320.625C320.241 79.376 319.559 80.1013 318.577 80.656C317.639 81.2107 316.359 81.68 314.737 82.064L311.857 82.768C310.535 83.0667 309.361 83.472 308.337 83.984C307.356 84.4533 306.567 85.072 305.969 85.84C305.372 86.5653 305.073 87.5253 305.073 88.72C305.073 90.4267 305.671 91.7493 306.865 92.688C308.06 93.584 309.66 94.032 311.665 94.032C313.244 94.032 314.716 93.6907 316.081 93.008C317.447 92.3253 318.535 91.216 319.345 89.68C320.199 88.1013 320.625 86.032 320.625 83.472L322.289 83.664C322.289 87.2053 321.713 90.0853 320.561 92.304C319.452 94.5227 317.916 96.144 315.953 97.168C313.991 98.1493 311.751 98.64 309.233 98.64ZM340.322 98V94.736H345.954V56.08H340.834V52.816H352.354V94.736H356.834V98H340.322ZM362.658 98V94.736H367.714L356.45 80.912L360.482 77.008L375.01 94.736H378.466V98H362.658ZM351.906 87.376L349.474 84.624L367.714 68.624H361.25V65.296H377.058V68.624H373.474L351.906 87.376ZM414.021 98.192L403.333 68.624H399.941V65.296H415.621V68.624H409.605L418.117 93.84L416.581 93.776L425.477 68.624H419.525V65.296H433.029V68.624H429.765L419.013 98.192H414.021ZM394.565 98.192L383.941 68.624H380.677V65.296H395.653V68.624H390.597L399.109 93.84L397.573 93.776L406.149 69.648L407.749 75.6L399.749 98.192H394.565ZM441.89 76.688C440.738 76.688 439.736 76.368 438.882 75.728C438.029 75.0453 437.602 74 437.602 72.592C437.602 70.8 438.242 69.328 439.522 68.176C440.802 67.024 442.488 66.1493 444.578 65.552C446.712 64.9547 448.952 64.656 451.298 64.656C455.138 64.656 458.104 65.4453 460.194 67.024C462.285 68.6027 463.33 71.0133 463.33 74.256L457.314 73.36C457.314 71.568 456.696 70.2027 455.458 69.264C454.221 68.2827 452.386 67.792 449.954 67.792C448.461 67.792 447.053 67.984 445.73 68.368C444.408 68.7093 443.32 69.2853 442.466 70.096C441.613 70.864 441.144 71.8667 441.058 73.104L440.93 70.544C442.296 70.544 443.384 70.8 444.194 71.312C445.048 71.824 445.453 72.6133 445.41 73.68C445.41 74.6187 445.09 75.3653 444.45 75.92C443.853 76.432 443 76.688 441.89 76.688ZM465.826 98.64C463.266 98.64 461.304 97.9147 459.938 96.464C458.616 95.0133 457.954 92.9653 457.954 90.32V87.632H457.25V78.48H456.93L457.314 75.856V73.36L463.33 74.256V90.704C463.33 91.8133 463.586 92.7093 464.098 93.392C464.653 94.0747 465.464 94.416 466.53 94.416C467.554 94.416 468.322 94.0747 468.834 93.392C469.389 92.7093 469.666 91.8133 469.666 90.704V79.824H473.634V90.384C473.634 92.944 472.973 94.9707 471.65 96.464C470.328 97.9147 468.386 98.64 465.826 98.64ZM445.858 98.64C442.658 98.64 440.077 97.872 438.114 96.336C436.152 94.7573 435.17 92.624 435.17 89.936C435.17 87.9733 435.597 86.3733 436.45 85.136C437.304 83.8987 438.477 82.9173 439.97 82.192C441.506 81.424 443.234 80.8267 445.154 80.4L450.53 79.248C451.853 78.9493 453.026 78.5867 454.05 78.16C455.074 77.6907 455.864 77.0933 456.418 76.368C457.016 75.6 457.314 74.5973 457.314 73.36L457.506 78.48H457.25C456.866 79.376 456.184 80.1013 455.202 80.656C454.264 81.2107 452.984 81.68 451.362 82.064L448.482 82.768C447.16 83.0667 445.986 83.472 444.962 83.984C443.981 84.4533 443.192 85.072 442.594 85.84C441.997 86.5653 441.698 87.5253 441.698 88.72C441.698 90.4267 442.296 91.7493 443.49 92.688C444.685 93.584 446.285 94.032 448.29 94.032C449.869 94.032 451.341 93.6907 452.706 93.008C454.072 92.3253 455.16 91.216 455.97 89.68C456.824 88.1013 457.25 86.032 457.25 83.472L458.914 83.664C458.914 87.2053 458.338 90.0853 457.186 92.304C456.077 94.5227 454.541 96.144 452.578 97.168C450.616 98.1493 448.376 98.64 445.858 98.64ZM492.481 98.704C488.897 98.704 486.231 97.5947 484.481 95.376C482.775 93.1573 482.007 90.1067 482.177 86.224L482.689 69.008H473.985V65.552H476.929C478.807 65.552 480.3 65.3387 481.409 64.912C482.519 64.4427 483.287 63.696 483.713 62.672C484.183 61.648 484.417 60.3467 484.417 58.768V56.464H488.577V87.504C488.577 89.4667 489.004 91.0027 489.857 92.112C490.711 93.2213 492.012 93.776 493.761 93.776C495.511 93.776 496.791 93.2427 497.601 92.176C498.412 91.0667 498.817 89.5093 498.817 87.504V79.504H502.849V87.568C502.849 91.024 501.996 93.7547 500.289 95.76C498.583 97.7227 495.98 98.704 492.481 98.704ZM488.577 69.008V65.296H504.193V69.008H488.577ZM525.92 98.704C522.72 98.704 519.904 98.0427 517.472 96.72C515.04 95.3973 513.142 93.4773 511.776 90.96C510.411 88.4 509.728 85.3067 509.728 81.68C509.728 78.0107 510.411 74.9173 511.776 72.4C513.142 69.84 515.019 67.8987 517.408 66.576C519.84 65.2533 522.635 64.592 525.792 64.592L525.984 68.048C523.936 68.048 522.166 68.5387 520.672 69.52C519.222 70.5013 518.091 71.9733 517.28 73.936C516.47 75.856 516.064 78.288 516.064 81.232C516.064 85.1573 517.046 88.272 519.008 90.576C521.014 92.8373 523.702 93.968 527.072 93.968C529.248 93.968 530.998 93.584 532.32 92.816C533.686 92.048 534.731 91.088 535.456 89.936C536.224 88.784 536.758 87.6533 537.056 86.544H540.832C540.704 87.952 540.299 89.3813 539.616 90.832C538.976 92.2827 538.059 93.6053 536.864 94.8C535.67 95.952 534.155 96.8907 532.32 97.616C530.528 98.3413 528.395 98.704 525.92 98.704ZM512.864 81.232V77.904H534.88L541.216 79.76V81.232H512.864ZM534.88 77.904C534.838 76.0693 534.475 74.4053 533.792 72.912C533.11 71.4187 532.107 70.2453 530.784 69.392C529.504 68.496 527.904 68.048 525.984 68.048L525.792 64.592C529.163 64.592 531.979 65.232 534.24 66.512C536.544 67.792 538.272 69.5627 539.424 71.824C540.619 74.0853 541.216 76.7307 541.216 79.76L534.88 77.904ZM546.579 98V94.736H552.339V68.624H547.091V65.296H558.035V76.304L558.739 76.176V94.736H567.123V98H546.579ZM556.691 78.224C556.734 75.024 557.267 72.4213 558.291 70.416C559.315 68.368 560.702 66.8747 562.451 65.936C564.243 64.9547 566.27 64.464 568.531 64.464C570.921 64.4213 572.862 64.9973 574.355 66.192C575.849 67.3867 576.595 69.0293 576.595 71.12C576.595 72.4427 576.211 73.5307 575.443 74.384C574.675 75.2373 573.651 75.664 572.371 75.664C571.305 75.664 570.43 75.3653 569.747 74.768C569.107 74.128 568.787 73.3387 568.787 72.4C568.787 71.2907 569.193 70.4373 570.003 69.84C570.814 69.2427 572.009 68.9867 573.587 69.072L573.075 71.184C573.033 69.9467 572.521 69.008 571.539 68.368C570.601 67.6853 569.321 67.3653 567.699 67.408C566.078 67.408 564.563 67.8133 563.155 68.624C561.79 69.392 560.702 70.5867 559.891 72.208C559.123 73.8293 558.739 75.8347 558.739 78.224H556.691ZM599.4 98.576C597.096 98.576 594.962 98.192 593 97.424C591.08 96.6133 589.48 95.376 588.2 93.712C586.92 92.0053 586.066 89.7867 585.64 87.056H586.984C587.794 89.0613 588.818 90.64 590.056 91.792C591.293 92.944 592.616 93.776 594.024 94.288C595.432 94.7573 596.818 94.992 598.184 94.992C600.317 94.992 601.96 94.544 603.112 93.648C604.306 92.752 604.904 91.4933 604.904 89.872C604.904 88.7627 604.584 87.8667 603.944 87.184C603.346 86.5013 602.536 85.9467 601.512 85.52C600.53 85.0933 599.4 84.7733 598.12 84.56L593.832 83.728C591.57 83.3013 589.586 82.704 587.88 81.936C586.216 81.1253 584.914 80.0587 583.976 78.736C583.037 77.4133 582.568 75.7493 582.568 73.744C582.568 70.7573 583.57 68.5173 585.576 67.024C587.624 65.488 590.226 64.72 593.384 64.72C595.56 64.72 597.565 65.104 599.4 65.872C601.234 66.5973 602.77 67.7707 604.008 69.392C605.288 71.0133 606.077 73.1467 606.376 75.792H605.096C604.413 73.872 603.474 72.3573 602.28 71.248C601.085 70.1387 599.805 69.3707 598.44 68.944C597.074 68.4747 595.773 68.24 594.536 68.24C592.658 68.24 591.144 68.6453 589.992 69.456C588.84 70.2667 588.264 71.44 588.264 72.976C588.264 74.0853 588.52 74.9813 589.032 75.664C589.586 76.3467 590.376 76.88 591.4 77.264C592.424 77.6053 593.618 77.9253 594.984 78.224L599.208 79.056C601.298 79.44 603.197 80.016 604.904 80.784C606.653 81.5093 608.04 82.5333 609.064 83.856C610.13 85.136 610.664 86.8427 610.664 88.976C610.664 92.0907 609.64 94.48 607.592 96.144C605.544 97.7653 602.813 98.576 599.4 98.576ZM583.016 98V87.056H585.64L586.984 89.168V98H583.016ZM606.376 75.792L605.096 73.68V65.296H609.064V75.792H606.376Z" fill="#082658"/>
<defs>
<clipPath id="clip0_102_13">
<rect width="113" height="117" fill="white" transform="translate(33 18)"/>
</clipPath>
</defs>
</svg>
