<svg width="717" height="641" viewBox="0 0 717 641" fill="none" xmlns="http://www.w3.org/2000/svg">
<g clip-path="url(#clip0_162_102)">
<path d="M391.16 112.01C391.41 112.41 397.69 114.84 399.49 116.17C406.81 121.57 412.72 130.67 415.27 139.39C416.05 142.07 416.75 150.13 417.45 151.21C418.11 152.23 423.38 153.3 425.31 154.35C436.5 160.42 435.7 164.21 441.96 172.7C444.06 175.55 450.17 178.38 453.5 182.16C458.74 188.12 462.8 197.67 463.05 205.66C463.16 209.08 460.99 214.54 461.19 215.53C461.6 217.61 465.7 219.37 467 220.95C474.67 230.29 476.57 242.59 470.82 253.49C469 256.93 461.47 263.53 461.15 264.87C460.81 266.32 462.15 271.8 461.73 275.42C459.09 298.38 432.04 317.68 411.05 302.61C405.42 298.56 403.66 291.03 401.73 289.43C400.18 288.15 393.89 288.21 391.19 287.47C373.35 282.59 363.67 262.92 373.96 246.66C370 244.34 365.12 244.34 360.67 241.99C349.16 235.94 343.91 222.75 345.94 210.21C311.29 201.63 278.26 206.35 248.68 226.35C179.79 272.93 154.73 361.29 201.58 433.08C258.8 520.74 361.31 534.74 455 555.66C519.25 570 585.79 589.37 651.5 594.16C673.2 595.74 695.16 594.98 716.99 595.18C702.76 608.31 683.82 618.19 665.96 625.64C634.18 638.89 597.59 647.11 563.37 651.05C481.41 660.49 401.81 643.96 319.66 655.34C292.17 659.15 266.22 667.01 239.18 671.86C171.29 684.03 99.45 675.83 30.45 676.13C-5.93999 676.29 -38.89 676.88 -75.52 675.18C-118.2 673.2 -161.06 674.26 -203.5 672.16C-228.47 670.92 -252.29 664.1 -276.8 660.46C-303.3 656.53 -322.36 662.58 -347.55 661.21C-359.31 660.57 -370.9 657.01 -382.52 656.18C-404.87 654.58 -422.56 654.78 -445.02 649.68C-459.29 646.44 -474.88 641.65 -487.01 633.67C-441.19 620.14 -401.4 591.03 -367 558.69C-271.1 468.53 -225.52 345.1 -163.19 232.5C-117.3 149.61 -51.31 65.75 45.75 43.44C66.01 38.78 82.84 31.59 102.77 26.46C117.93 22.56 129.26 19.52 144.19 14.88C176.92 4.72002 229.37 -7.33998 261.96 5.68002C266.75 7.59002 272.65 12.84 275.72 13.92C283.89 16.78 292.9 15.07 302.96 19.68C306.88 21.48 314.45 28.59 315.68 28.96C318.3 29.74 321.67 28.82 324.46 29.18C344.13 31.66 363.56 42.23 371.16 61.48C372.65 65.26 373.25 71.41 374.48 74.16C375.21 75.79 381.77 79.87 384.16 83.48C386.19 86.55 390.18 95.4 390.72 98.92C391.18 101.89 390.41 110.88 391.12 112.02L391.16 112.01ZM360.02 85.14C365.03 64.9 347.31 44.98 327.48 43.19C322.8 42.77 314.49 44.15 310.68 42.99C309.82 42.73 302.29 34.01 296.99 31.68C286.05 26.86 277.31 30.33 269.68 27.99C267.56 27.34 267.05 24.49 265.49 23.18C239.76 1.55002 175.65 18.81 146.22 27.91C121.9 35.43 96.8 40.82 72.74 49.43C68.58 50.92 61.51 55.3 58.27 55.96C-114.54 91.04 -169.16 279.28 -245.84 413.85C-256.62 432.77 -267.91 451.72 -279.6 470.09C-289.47 485.61 -300.62 500.34 -310.01 516.17L-291.99 498.7C-218.58 424.51 -186.84 322.93 -128.83 238.86C-118.16 223.39 -101.9 200.86 -86.94 189.91C-86.3 189.44 -84.77 188 -84.03 188.66C-133.64 247.21 -164.1 319.03 -197 387.68C-192.26 388.28 -187.71 380.95 -184.03 377.65C-180.79 374.76 -175.07 371.35 -172.57 368.11C-168.73 363.13 -165.93 353.63 -162.88 347.8C-150.74 324.64 -138 301.54 -121.52 281.16L-157.01 359.16C-149.46 354.84 -141.93 349.99 -133.71 346.97C-129.63 345.47 -120.91 344.26 -118.06 342.62C-115.5 341.15 -113.21 330.4 -111.77 326.91C-106.23 313.47 -92.38 286.08 -75.52 286.08C-68.9 286.08 -62.39 292.76 -61.02 279.67C-59.49 265.03 -66.77 259.19 -81.01 261.16C-76.89 252.42 -68.23 242.79 -58.81 239.87C-46.54 236.06 -40.75 240.71 -30.55 240.22C-15.77 239.5 -11.42 217.84 -25.77 211.43C-35.32 207.16 -47.84 210.12 -57 214.17C-57.99 213 -50.3 205.7 -49.02 204.66C-41.64 198.65 -33.22 194.56 -23.52 195.19C-19.35 195.46 -14.16 198.54 -10.44 195.23C-8.44 193.44 -8.47 189.53 -9.53 187.19C-11.85 182.02 -24.5 185.01 -13.7 177.98C-5.92001 172.92 7.00999 170.31 16.02 172.65C24.19 174.78 21.48 186.53 31.36 185.85C39.46 185.3 40.66 174.4 38.48 168.18C35.38 159.31 23.89 154.34 15 155.17C12.64 153.15 27.11 144.94 28.63 144.31C38.05 140.4 49.85 140.01 59.55 143.13C64.64 144.77 78.46 154.6 74.53 140.15C71.38 128.58 53.52 124.61 43.51 123.16C37.93 122.35 47.58 119.5 49.59 119.26C68.27 117.05 84.21 123.87 90.32 142.36C91.75 146.68 89.91 153.7 96.43 153.14C101.97 152.67 105.89 146.39 106.01 141.17C114.9 146.78 105.87 158.07 107.16 162.46C108 165.34 114.6 167.31 117.47 167.22C126.84 166.92 134.75 156.93 136.75 148.42C141.26 129.26 128.42 111.46 112.67 102C109.76 100.25 93.04 93.76 93.02 92.67C92.95 89.38 110.2 91.85 112.97 92.7C123.46 95.89 128.24 104.16 137.41 108.2C139.36 108.01 138.15 98.5 140.98 101.18C144.09 104.13 143.27 115.39 140.99 119.17C148.42 121.8 156.2 118.06 159.19 110.88C165.84 94.88 155.12 79.67 141.2 72.48C138.55 71.11 131.22 70.25 135.27 67.95C141.88 64.19 153.77 66.81 159.91 70.77C165.51 74.38 174.01 90.17 179.32 89.93C188.87 89.5 183.22 79.12 184.2 73.93C187.32 57.4 217.91 58.39 221.6 78.15C222.64 83.73 215.61 93.45 224.45 93.21C229.35 93.07 231.43 90.37 233.57 86.24C234.68 84.1 234.39 81.09 235.99 80.18C236.05 84.52 237.45 88.09 236.91 92.59C236.1 99.32 226.36 107.9 237.48 109.19C248.01 110.41 257.88 102.43 261.05 92.73C267.41 73.32 256.51 59.56 241.89 48.76C240.77 47.93 239.4 48.78 240 46.19C248.14 45.02 259.09 49.05 265.03 54.65C266.88 56.39 270.1 62.5 271.66 63.03C274.35 63.95 276.96 62.41 279.32 62.57C292.94 63.47 307.05 71.81 303.76 87.46C302.85 91.8 297.65 93.59 301.43 98.26C307.41 105.66 321 98.91 322.76 90.46C323.46 87.12 322.73 85.24 322.42 82.24C322.33 81.4 321.23 79.22 323.48 80.19C329.12 82.63 331.95 95.92 330.77 101.46C330.36 103.36 328.28 105.42 328.19 106.85C327.93 110.93 333.71 113.05 337.28 112C340.2 111.14 341.78 105.53 343.48 106.2C350.26 113.15 352.03 122.53 347.55 131.25C346.22 133.85 340.99 137.94 344.23 140.96C349.29 145.67 359.21 138.92 365.03 140.65C375.32 143.71 377.19 157.11 375.98 166.19L368.04 158.65C352.87 157.49 363.05 165.29 364.53 170.15C367.61 180.32 357.54 181.88 357.94 186.64C358.48 193.08 366.73 189.6 370.05 186.73C371.18 185.76 372.38 181.67 373.98 183.19C374.86 184.03 379.81 199.69 379.92 201.85C380.15 206.33 376.57 220.55 370.69 219.09C365.57 217.82 369.91 210.96 368.54 208.2C365.17 201.42 353.24 210.25 359.45 223.24C365.67 236.23 385.44 234.84 393.41 224.1L398.99 215.19C399.06 218.24 399.2 221.22 398.56 224.24C397.48 229.31 388.74 236.55 397.47 236.23C416.27 235.54 421.46 200.28 409.01 188.68C408.79 188.01 409.96 187.96 410.49 188.19C412.01 188.87 418.52 196.25 419.56 198.13C426.36 210.43 424.41 224.15 416.83 235.51C415.74 237.15 412.42 239.69 412.2 240.82C411.8 242.84 415.08 247.32 413.53 253.22C411.59 260.58 398.85 265.71 393.44 259.25C391.3 256.7 388.73 243.47 382.78 253.47C376.02 264.84 389.3 274.85 399.61 276.08C418.42 278.33 430.28 265.26 436.75 249.39C437.36 247.89 436.15 246.68 439 247.19C439.75 264.83 432.02 282.57 413.99 287.69C414.01 290.49 420.07 293.72 422.56 294.11C437.37 296.45 448.92 284.97 449.99 270.67C450.22 267.55 448.69 261.11 449.1 259.85C449.57 258.4 451.96 257.93 453 256.67C459.89 248.38 464.5 238.62 456.53 229.14C452.98 224.92 449.52 224.9 444.99 222.65C451.72 212.69 452.51 199.53 443.64 190.53C441.36 188.22 433.41 184.46 432.53 183.14C431.65 181.82 431.68 179.11 430.55 177.12C424.13 165.91 414.76 162.15 402 163.17C410.88 143.21 394.45 120.39 373 121.17C372.79 118.03 375.41 116.11 376.47 113.15C381.08 100.28 374.02 86.54 360.02 85.14ZM204.99 102.18C199.98 102.48 194.9 105.75 190.87 108.58C190.26 109 187.35 109.62 189 111.17C189.67 111.8 203.85 104.42 204.99 102.18ZM307 118.17C269.44 114.69 231.41 128.52 199.32 146.99C101.26 203.45 38.88 322.99 92.45 432.21C125.64 499.87 200.71 539.33 270 560.66C285.59 565.46 319.17 574.87 334.51 574.65C335.38 574.64 337.29 574.51 336.99 573.17C234.03 550.49 105.52 496.07 83.29 380.36C66.24 291.61 120.84 203.79 193.08 156.74C222.83 137.36 269.54 117.72 305.5 120.14C307.52 120.28 307.06 120 307 118.16V118.17ZM187.99 129.18C177.38 132.53 166.3 139.47 157.27 145.95C26.64 239.6 -3.61002 421.91 136.67 522.99C166.8 544.7 202.87 560.63 238.98 569.16L203.63 554.03C150.21 529.12 95.85 487.59 70.81 432.85C24.75 332.17 70.75 223.34 150.51 156.2C162.33 146.25 175.36 138 187.98 129.18H187.99ZM325.99 142.18C278.96 133.41 233.4 150.12 195.68 177.35C132.45 222.99 84.4 306.26 104.71 385.95C109.61 405.17 119.24 422.75 130.01 439.16C131.85 439.4 130.88 437.06 130.54 436.13C128.46 430.53 123.24 423.3 120.53 417.13C69.29 300.52 174.9 151.33 296.51 143.17C304.97 142.6 313.96 143.5 322.51 143.16C323.72 143.11 326.23 143.91 325.99 142.17V142.18ZM317.99 164.18C266.2 158.66 218.58 184.02 183.48 220.16C99.63 306.49 105.31 428.17 207.09 496.58C258.08 530.86 322.76 549.52 382.99 559.16L380.21 557.47C282.96 534.34 148.71 486.61 134.13 371.54C121.71 273.57 209.05 168.45 308.5 166.16L318 164.18H317.99ZM344.73 167.42C338.32 160.59 323.18 168.07 330.51 178.15C338.48 189.1 351.45 174.58 344.73 167.42ZM300.99 599.18C199.79 588.2 88.92 540.5 44.14 443.53C7.52002 364.22 21.67 284.83 63.83 211.5C71.93 197.41 82.3 184.6 89.51 170.19C11.91 249.26 -9.82002 377.93 50.98 473.69C102.75 555.23 196.67 593.35 290.46 600.21L301 599.18H300.99ZM295 189.15C295.07 189.07 295.36 187.04 294.52 187.18C275.94 190.19 260.14 193.95 243.69 203.36C169.71 245.67 121.6 354.13 177.5 429.16C177.99 424.03 173.51 418.1 171.53 413.13C158.23 379.83 155.94 348.31 165.98 313.64C181.02 261.74 223.65 210.28 276 193.66C279.25 192.63 294.34 189.87 295 189.15ZM79.99 537.18C77.19 535.22 73.41 532.03 70.98 529.68C-13.23 448.12 -22.92 333.37 27.14 229.81C32 219.76 38.35 210.56 42.51 200.19C-33.71 295.54 -30.82 458.1 72.11 533.56C73.68 534.71 75.81 536.33 77.44 537.24C78.31 537.73 79.97 539.35 80 537.18H79.99ZM239 620.18C130.85 600.11 20.92 553.56 -17.02 441.69C-45.06 359.02 -27.65 292.78 4.29001 215.97C5.19001 213.8 7.22 210.48 6.5 208.18C-54.3 299.72 -54.68 428.95 14.6 516.07C63.82 577.97 138.64 606.11 214.79 618.88C222.32 620.14 230.33 620.57 237.74 621.95C239.67 622.31 238.95 621.87 239 620.18ZM-54.01 350.16C-54.2 335.05 -50.56 320.16 -49.01 305.17C-50.59 305.04 -50.57 307.66 -50.87 308.79C-53.35 318.4 -57.19 339.32 -56.01 348.68C-55.82 350.14 -55.25 351.78 -54.01 350.16ZM-96 372.18C-88.23 372.29 -81.13 377.48 -77.16 383.83C-73.19 390.18 -70.93 405.61 -60.04 398.62C-50.33 392.39 -55.97 373.31 -62.02 365.69C-92.58 327.18 -155.92 367.25 -183.01 391.65C-230.28 434.22 -267.5 491.83 -314.98 536.68C-343.7 563.81 -375.37 587.44 -407.99 609.67C-407.34 610.99 -405.27 609.75 -404.29 609.37C-347.87 587.24 -298.8 541.32 -257.48 498.18C-245.74 485.92 -235.66 472.06 -222.49 461.17C-220.81 462.22 -222.93 463.36 -223.5 464.16C-271.16 532.61 -339.13 607.69 -422.79 629.87C-429.6 631.68 -436.74 632.45 -443.57 634.13C-445.26 634.55 -446.48 633.14 -445.99 636.15C-408.13 638.33 -373.37 621.97 -342.08 602.57C-317.78 587.5 -295.07 568.94 -274.49 549.16C-273.19 550.37 -275.83 553.1 -276.59 554.06C-298.96 582.19 -336.24 613.82 -367.95 630.7C-370.47 632.04 -384.35 637.49 -384.99 638.17C-385.07 638.25 -385.36 640.28 -384.51 640.14C-320.55 620.36 -269.51 573.09 -229.6 521.05C-219.46 507.83 -210.54 493.32 -200.41 480.24C-193.05 470.74 -175.08 447.86 -161.27 456.93C-156.51 460.05 -158.73 466.31 -150.26 463.39C-139.92 459.82 -140.57 444.38 -148.5 438.17C-156.47 431.93 -164.95 434.89 -174.01 434.66C-168.39 425.1 -156 421.37 -145.46 422.14C-137.35 422.73 -127.34 428.52 -122.13 418.55C-118.49 411.57 -124.26 400.09 -130.64 396.32L-143.99 391.19C-131.12 383.28 -115.52 382.41 -107.46 397.14C-103.91 403.62 -105.21 409.85 -94.95 407.74C-82.51 405.19 -81.27 389.44 -87.57 380.25C-89.79 377.01 -93.52 375.12 -96.01 372.2L-96 372.18ZM181.99 630.18C101.88 612.99 23.82 575.16 -18.18 501.84C-34.6 473.17 -45.78 439.78 -51.02 407.17C-56.16 408.64 -55.2 412.05 -54.88 416.55C-50.13 482.6 -7.77999 548.05 46.26 584.4C79.37 606.66 135.84 627.2 175.61 631.05C176.97 631.18 181.68 632.13 181.98 630.19L181.99 630.18ZM157.99 646.18C114.18 639.56 69.54 623.22 32.08 599.59C-22.62 565.08 -61.4 505.73 -73.69 442.36L-77.99 417.18C-83.58 531.11 0.969994 615.39 106.99 639.69C119.92 642.65 137.44 646.19 150.51 647.17C152.11 647.29 157.31 648.03 157.99 646.19V646.18ZM66.99 647.18C54.65 643.92 43.1 638.53 31.64 633.03C-44.46 596.47 -95.59 540.85 -106.87 454.54L-108.99 435.17C-113.68 484.03 -99.18 534.73 -67.98 572.64C-43.53 602.35 -5.56002 625.32 30.48 638.18C40.07 641.6 53.06 645.94 62.94 647.72C63.99 647.91 67.14 649.15 66.98 647.18H66.99ZM-24.01 656.18C-100.26 636.33 -163.15 591.58 -171 507.66C-171.79 499.23 -170.88 492.58 -171 484.67C-171.02 483.49 -170.3 480.92 -172 481.17C-185.2 541.57 -160.77 600.12 -107.32 630.97C-88 642.12 -52.5 654.88 -30.39 657.04C-29.03 657.17 -24.32 658.12 -24.02 656.18H-24.01ZM2.98999 646.18C-62.95 620.05 -114.9 575.69 -131.72 504.38L-135.99 481.17C-137.09 484.29 -137.16 487.43 -137.05 490.71C-134.48 569.29 -91.78 613.39 -21.25 639.91C-15.07 642.24 -7.42999 645.5 -1.04999 646.72C-0.00998783 646.92 3.15 648.14 3 646.18H2.98999ZM-170.59 611.74C-187.23 593.21 -198.43 569.81 -202.53 545.18L-204.99 524.16C-212.12 569.87 -193.3 616.04 -152.02 638.67C-139.86 645.34 -119.47 653.19 -105.86 655.51C-104.51 655.74 -102.62 657.33 -103.01 654.66C-127.09 644.2 -152.8 631.53 -170.58 611.73L-170.59 611.74ZM-236.01 565.67C-236.96 569.41 -236.01 581.76 -236.01 586.67C-236.01 588.94 -232.71 600.46 -231.73 603.39C-222.1 632.25 -191.04 651.12 -162.01 655.16C-164.93 652 -169.89 651.35 -173.7 649.36C-206.44 632.22 -231.29 601.97 -234.02 564.17C-234.65 564.14 -235.92 565.33 -236.01 565.67ZM675.99 605.18C651.81 605.71 627.61 604.05 603.64 601.03C527.41 591.44 461.73 562.65 382.99 581.67C333.89 593.53 294.46 622.46 250.35 645.03L208 662.16C248.04 660.14 285.79 643.99 324.79 636.47C359.41 629.79 394.29 628.37 429.48 630.19L528.98 640.18C529.47 637.17 528.25 638.57 526.56 638.16C476.5 625.89 421.01 617.76 369.45 618.14L331 622.17L337.21 618.89C420.46 586.86 493.16 622.92 575.46 626.22C586.59 626.67 597.86 625.81 609 626.17L595.38 623.3C540.06 620.64 487.44 599.77 432.01 599.17C431.77 597.73 433.77 597.77 434.8 597.49C477.82 585.53 529.64 599.51 572.64 605.04C602.85 608.93 641.17 610.24 671.38 607.06C672.41 606.95 676.08 606.66 675.99 605.19V605.18ZM-274.59 603.58C-272.54 601.52 -269.29 599.42 -268.5 596.18C-289.15 611.9 -310.37 627.33 -333.65 639.02L-355 648.15C-323.53 645.81 -296.08 625.15 -274.59 603.58ZM-252.02 613.17C-252.55 612.63 -254.14 612.44 -253.8 614.44C-250.49 633.88 -238.08 649.57 -218.02 653.16L-231.03 643.68C-237.49 637.53 -243.06 632 -247.53 624.18C-248.85 621.88 -251.61 613.59 -252.03 613.16L-252.02 613.17Z" fill="#06162F"/>
<path d="M410.76 337.37C420.42 335.96 423.72 348.28 416.26 351.93C404.65 357.6 399.04 339.08 410.76 337.37Z" fill="#06162F"/>
<path d="M499.74 279.9C493.51 285.74 480.24 275.46 488.47 268.14C497 260.55 507.02 273.07 499.74 279.9Z" fill="#06162F"/>
<path d="M546.25 266.43C552.58 260.49 565.03 271.26 555.52 278.18C547.06 284.34 540.09 272.21 546.25 266.43Z" fill="#06162F"/>
<path d="M341.71 284.86C334.39 290.76 324.14 280.63 331.48 274.14C339.91 266.68 348.81 279.14 341.71 284.86Z" fill="#06162F"/>
<path d="M370.71 312.38C383.46 309.5 383.31 328.5 370.54 326.16C364.47 325.04 363.64 313.98 370.71 312.38Z" fill="#06162F"/>
<path d="M317.71 225.34C329.67 223.47 327.44 243.88 315.02 238.63C308.02 235.68 311.86 226.25 317.71 225.34Z" fill="#06162F"/>
<path d="M495.23 221.93C488.96 215.66 499.91 204.62 506.46 212.2C513.05 219.83 500.53 227.23 495.23 221.93Z" fill="#06162F"/>
<path d="M440.23 127.93C435.13 122.83 442.84 110.41 450.51 117.15C457.43 123.22 446.28 133.98 440.23 127.93Z" fill="#06162F"/>
<path d="M489.73 164.42C495.77 170.82 484.63 181.63 478.52 173.14C472.95 165.4 484.51 158.89 489.73 164.42Z" fill="#06162F"/>
<path d="M535.26 228.91C531.75 225.19 534.25 216.24 541.41 217.19C553.99 218.86 543.5 237.63 535.26 228.91Z" fill="#06162F"/>
<path d="M469.7 306.38C479.17 303.58 482.09 314.9 475.97 317.64C467.68 321.35 461.87 308.7 469.7 306.38Z" fill="#06162F"/>
<path d="M515.7 149.86C509.01 155.26 501.1 145.81 507.03 140.7C513.42 135.2 521.61 145.09 515.7 149.86Z" fill="#06162F"/>
<path d="M486.71 354.86C477.42 362.39 471.34 341.68 484.47 344.18C489.62 345.16 490.41 351.86 486.71 354.86Z" fill="#06162F"/>
<path d="M515.65 240.38C522.16 239.79 522.84 250.6 516.44 251.22C510.04 251.84 508.64 241.02 515.65 240.38Z" fill="#06162F"/>
<path d="M445.7 336.36C454.93 333.58 455.99 346.71 446.55 345.17C441.86 344.4 441.72 337.56 445.7 336.36Z" fill="#06162F"/>
<path d="M509.66 299.3C518.09 296.52 518.32 311.85 510.27 308.42C505.88 306.54 506.22 300.44 509.66 299.3Z" fill="#06162F"/>
<path d="M360.02 85.14C374.03 86.54 381.08 100.28 376.47 113.15C375.41 116.11 372.79 118.03 373 121.17C394.45 120.39 410.88 143.21 402 163.17C414.76 162.15 424.13 165.91 430.55 177.12C431.69 179.11 431.65 181.81 432.53 183.14C433.41 184.47 441.36 188.22 443.64 190.53C452.51 199.53 451.72 212.69 444.99 222.65C449.52 224.9 452.98 224.92 456.53 229.14C464.5 238.62 459.89 248.38 453 256.67C451.96 257.92 449.57 258.4 449.1 259.85C448.7 261.1 450.22 267.55 449.99 270.67C448.93 284.97 437.37 296.45 422.56 294.11C420.07 293.72 414.01 290.49 413.99 287.69C432.01 282.57 439.75 264.82 439 247.19C436.15 246.67 437.36 247.89 436.75 249.39C430.28 265.26 418.42 278.33 399.61 276.08C389.3 274.85 376.02 264.84 382.78 253.47C388.73 243.47 391.3 256.7 393.44 259.25C398.85 265.71 411.59 260.58 413.53 253.22C415.08 247.33 411.8 242.84 412.2 240.82C412.42 239.69 415.74 237.15 416.83 235.51C424.4 224.14 426.36 210.43 419.56 198.13C418.52 196.25 412.01 188.87 410.49 188.19C409.96 187.95 408.79 188 409.01 188.68C421.46 200.28 416.27 235.54 397.47 236.23C388.74 236.55 397.48 229.32 398.56 224.24C399.2 221.22 399.06 218.24 398.99 215.19L393.41 224.1C385.44 234.84 365.67 236.23 359.45 223.24C353.23 210.26 365.17 201.42 368.54 208.2C369.91 210.96 365.57 217.81 370.69 219.09C376.57 220.55 380.15 206.33 379.92 201.85C379.81 199.69 374.86 184.03 373.98 183.19C372.38 181.67 371.18 185.75 370.05 186.73C366.73 189.59 358.48 193.08 357.94 186.64C357.54 181.88 367.6 180.32 364.53 170.15C363.06 165.28 352.87 157.49 368.04 158.65L375.98 166.19C377.19 157.11 375.32 143.71 365.03 140.65C359.2 138.92 349.28 145.67 344.23 140.96C340.98 137.94 346.21 133.85 347.55 131.25C352.03 122.54 350.27 113.15 343.48 106.2C341.78 105.53 340.2 111.14 337.28 112C333.71 113.05 327.92 110.94 328.19 106.85C328.28 105.43 330.36 103.36 330.77 101.46C331.96 95.92 329.12 82.63 323.48 80.19C321.23 79.22 322.34 81.4 322.42 82.24C322.73 85.24 323.45 87.12 322.76 90.46C321 98.91 307.41 105.66 301.43 98.26C297.65 93.58 302.85 91.8 303.76 87.46C307.05 71.8 292.94 63.47 279.32 62.57C276.95 62.41 274.34 63.95 271.66 63.03C270.11 62.5 266.88 56.39 265.03 54.65C259.09 49.06 248.14 45.03 240 46.19C239.4 48.78 240.76 47.93 241.89 48.76C256.51 59.56 267.41 73.32 261.05 92.73C257.87 102.43 248.01 110.42 237.48 109.19C226.36 107.9 236.11 99.32 236.91 92.59C237.45 88.09 236.05 84.52 235.99 80.18C234.38 81.09 234.67 84.1 233.57 86.24C231.43 90.37 229.36 93.07 224.45 93.21C215.61 93.46 222.64 83.73 221.6 78.15C217.91 58.39 187.32 57.4 184.2 73.93C183.22 79.12 188.87 89.5 179.32 89.93C174.01 90.17 165.51 74.38 159.91 70.77C153.78 66.81 141.89 64.2 135.27 67.95C131.22 70.25 138.55 71.11 141.2 72.48C155.11 79.67 165.84 94.88 159.19 110.88C156.2 118.07 148.42 121.8 140.99 119.17C143.27 115.4 144.08 104.13 140.98 101.18C138.15 98.5 139.36 108.01 137.41 108.2C128.24 104.16 123.46 95.89 112.97 92.7C110.2 91.86 92.95 89.38 93.02 92.67C93.04 93.76 109.76 100.26 112.67 102C128.42 111.46 141.26 129.25 136.75 148.42C134.75 156.93 126.84 166.92 117.47 167.22C114.61 167.31 108.01 165.34 107.16 162.46C105.87 158.07 114.9 146.78 106.01 141.17C105.89 146.38 101.97 152.66 96.43 153.14C89.91 153.7 91.74 146.68 90.32 142.36C84.21 123.87 68.27 117.05 49.59 119.26C47.58 119.5 37.94 122.35 43.51 123.16C53.52 124.61 71.38 128.58 74.53 140.15C78.46 154.6 64.64 144.76 59.55 143.13C49.85 140.01 38.05 140.4 28.63 144.31C27.11 144.94 12.65 153.15 15 155.17C23.89 154.34 35.38 159.31 38.48 168.18C40.66 174.41 39.46 185.3 31.36 185.85C21.48 186.52 24.19 174.77 16.02 172.65C7.00996 170.31 -5.93001 172.92 -13.7 177.98C-24.5 185.01 -11.85 182.02 -9.53003 187.19C-8.48003 189.54 -8.44 193.44 -10.44 195.23C-14.16 198.55 -19.35 195.47 -23.52 195.19C-33.22 194.56 -41.64 198.65 -49.02 204.66C-50.3 205.7 -57.99 213 -57 214.17C-47.84 210.12 -35.32 207.16 -25.77 211.43C-11.43 217.84 -15.77 239.5 -30.55 240.22C-40.75 240.72 -46.53 236.07 -58.81 239.87C-68.22 242.79 -76.89 252.43 -81.01 261.16C-66.77 259.19 -59.49 265.02 -61.02 279.67C-62.39 292.76 -68.9 286.08 -75.52 286.08C-92.38 286.08 -106.23 313.48 -111.77 326.91C-113.21 330.41 -115.5 341.16 -118.06 342.62C-120.91 344.25 -129.64 345.47 -133.71 346.97C-141.93 349.98 -149.46 354.84 -157.01 359.16L-121.52 281.16C-138 301.53 -150.74 324.64 -162.88 347.8C-165.94 353.63 -168.74 363.13 -172.57 368.11C-175.07 371.35 -180.79 374.76 -184.03 377.65C-187.71 380.94 -192.26 388.28 -197 387.68C-164.1 319.02 -133.64 247.21 -84.03 188.66C-84.76 188 -86.29 189.43 -86.94 189.91C-101.9 200.86 -118.15 223.39 -128.83 238.86C-186.84 322.93 -218.57 424.51 -291.99 498.7L-310.01 516.17C-300.63 500.34 -289.47 485.62 -279.6 470.09C-267.92 451.71 -256.63 432.77 -245.84 413.85C-169.16 279.28 -114.54 91.04 58.27 55.96C61.51 55.3 68.59 50.92 72.74 49.43C96.8 40.82 121.9 35.42 146.22 27.91C175.65 18.81 239.76 1.54998 265.49 23.18C267.05 24.49 267.56 27.34 269.68 27.99C277.32 30.33 286.05 26.86 296.99 31.68C302.29 34.02 309.82 42.73 310.68 42.99C314.49 44.16 322.79 42.77 327.48 43.19C347.31 44.98 365.03 64.9 360.02 85.14Z" fill="#FEFEFE"/>
<path d="M675.99 605.18C676.08 606.65 672.4 606.94 671.38 607.05C641.17 610.23 602.85 608.91 572.64 605.03C529.63 599.5 477.82 585.52 434.8 597.48C433.77 597.77 431.77 597.73 432.01 599.16C487.44 599.77 540.06 620.63 595.38 623.29L609 626.16C597.86 625.8 586.6 626.66 575.46 626.21C493.17 622.91 420.47 586.85 337.21 618.88L331 622.16L369.45 618.13C421.01 617.75 476.5 625.88 526.56 638.15C528.25 638.56 529.48 637.16 528.98 640.17L429.48 630.18C394.29 628.37 359.41 629.78 324.79 636.46C285.79 643.99 248.04 660.13 208 662.15L250.35 645.02C294.46 622.45 333.89 593.52 382.99 581.66C461.73 562.64 527.41 591.43 603.64 601.02C627.62 604.04 651.81 605.7 675.99 605.17V605.18Z" fill="#FEFEFE"/>
<path d="M307 118.17C307.06 120.01 307.51 120.28 305.5 120.15C269.55 117.73 222.83 137.38 193.08 156.75C120.84 203.8 66.2399 291.62 83.2899 380.37C105.52 496.08 234.02 550.5 336.99 573.18C337.29 574.51 335.38 574.65 334.51 574.66C319.17 574.87 285.58 565.46 270 560.67C200.71 539.34 125.64 499.88 92.4499 432.22C38.8799 323 101.27 203.46 199.32 147C231.41 128.52 269.44 114.7 307 118.18V118.17Z" fill="#FEFEFE"/>
<path d="M300.99 599.18L290.45 600.21C196.66 593.35 102.74 555.23 50.9701 473.69C-9.8299 377.93 11.9001 249.26 89.5001 170.19C82.2901 184.6 71.9201 197.41 63.8201 211.5C21.6601 284.83 7.51013 364.23 44.1301 443.53C88.9101 540.5 199.79 588.2 300.98 599.18H300.99Z" fill="#FEFEFE"/>
<path d="M317.99 164.18L308.49 166.16C209.04 168.44 121.71 273.56 134.12 371.54C148.7 486.6 282.96 534.34 380.2 557.47L382.98 559.16C322.75 549.52 258.07 530.86 207.08 496.58C105.3 428.17 99.6199 306.49 183.47 220.16C218.57 184.03 266.19 158.66 317.98 164.18H317.99Z" fill="#FEFEFE"/>
<path d="M239 620.18C238.95 621.87 239.67 622.31 237.74 621.95C230.34 620.56 222.32 620.14 214.79 618.88C138.64 606.1 63.83 577.97 14.6 516.07C-54.68 428.95 -54.3 299.71 6.50003 208.18C7.22003 210.48 5.19004 213.79 4.29004 215.97C-27.66 292.79 -45.06 359.03 -17.02 441.69C20.92 553.56 130.85 600.11 239 620.18Z" fill="#FEFEFE"/>
<path d="M187.99 129.18C175.36 137.99 162.33 146.25 150.52 156.2C70.7599 223.34 24.7599 332.17 70.8199 432.85C95.8599 487.59 150.22 529.13 203.64 554.03L238.99 569.16C202.88 560.63 166.81 544.7 136.68 522.99C-3.60011 421.91 26.6499 239.6 157.28 145.95C166.31 139.47 177.39 132.53 188 129.18H187.99Z" fill="#FEFEFE"/>
<path d="M157.99 646.18C157.31 648.02 152.11 647.28 150.51 647.16C137.43 646.18 119.92 642.65 106.99 639.68C0.98008 615.38 -83.5799 531.11 -77.9899 417.17L-73.6899 442.35C-61.3899 505.72 -22.6099 565.07 32.0801 599.58C69.5401 623.21 114.18 639.55 157.99 646.17V646.18Z" fill="#FEFEFE"/>
<path d="M181.99 630.18C181.69 632.12 176.98 631.17 175.62 631.04C135.86 627.19 79.3799 606.66 46.2699 584.39C-7.78006 548.04 -50.1301 482.59 -54.8701 416.54C-55.1901 412.04 -56.1601 408.63 -51.0101 407.16C-45.7801 439.77 -34.5901 473.16 -18.1701 501.83C23.8299 575.15 101.88 612.98 182 630.17L181.99 630.18Z" fill="#FEFEFE"/>
<path d="M325.99 142.18C326.22 143.92 323.72 143.12 322.51 143.17C313.96 143.51 304.97 142.61 296.51 143.18C174.9 151.33 69.2999 300.52 120.53 417.14C123.24 423.3 128.46 430.54 130.54 436.14C130.88 437.07 131.84 439.41 130.01 439.17C119.24 422.77 109.61 405.18 104.71 385.96C84.3999 306.26 132.44 223 195.68 177.36C233.4 150.13 278.96 133.42 325.99 142.19V142.18Z" fill="#FEFEFE"/>
<path d="M66.99 647.18C67.14 649.15 64.0001 647.91 62.9501 647.72C53.0701 645.94 40.07 641.6 30.49 638.18C-5.54996 625.32 -43.52 602.35 -67.97 572.64C-99.17 534.73 -113.67 484.03 -108.98 435.17L-106.86 454.54C-95.5799 540.84 -44.4399 596.47 31.6501 633.03C43.1101 638.54 54.66 643.92 67 647.18H66.99Z" fill="#FEFEFE"/>
<path d="M79.9899 537.18C79.9599 539.35 78.2999 537.72 77.4299 537.24C75.7999 536.33 73.6799 534.72 72.0999 533.56C-30.8301 458.1 -33.7101 295.53 42.4999 200.19C38.3399 210.56 31.9899 219.77 27.1299 229.81C-22.9301 333.37 -13.2301 448.12 70.9699 529.68C73.3999 532.03 77.1799 535.22 79.9799 537.18H79.9899Z" fill="#FEFEFE"/>
<path d="M2.98996 646.18C3.14996 648.14 -0.0200281 646.92 -1.06003 646.72C-7.43003 645.51 -15.07 642.24 -21.26 639.91C-91.79 613.39 -134.49 569.29 -137.06 490.71C-137.17 487.43 -137.1 484.29 -136 481.17L-131.73 504.38C-114.91 575.69 -62.97 620.05 2.97998 646.18H2.98996Z" fill="#FEFEFE"/>
<path d="M295 189.15C294.34 189.87 279.26 192.63 276 193.66C223.65 210.28 181.02 261.74 165.98 313.64C155.94 348.3 158.23 379.83 171.53 413.13C173.51 418.09 177.99 424.03 177.5 429.16C121.6 354.13 169.71 245.67 243.69 203.36C260.14 193.95 275.94 190.19 294.52 187.18C295.36 187.04 295.08 189.07 295 189.15Z" fill="#FEFEFE"/>
<path d="M344.73 167.42C351.45 174.58 338.48 189.1 330.51 178.15C323.18 168.08 338.32 160.6 344.73 167.42Z" fill="#FEFEFE"/>
<path d="M204.99 102.18C203.85 104.42 189.67 111.8 189 111.17C187.35 109.62 190.26 109 190.87 108.58C194.9 105.76 199.98 102.48 204.99 102.18Z" fill="#FEFEFE"/>
</g>
<defs>
<clipPath id="clip0_162_102">
<rect width="1203.99" height="678.54" fill="white" transform="translate(-487)"/>
</clipPath>
</defs>
</svg>
